<svg width="632" height="124" viewBox="0 0 632 124" fill="none" xmlns="http://www.w3.org/2000/svg">
<g filter="url(#filter0_d_2_120951)">
<rect x="16" y="14" width="600" height="92" rx="6" fill="#252526"/>
<rect x="21.5" y="21.5" width="589" height="25" rx="2.5" fill="#3C3C3C"/>
<path d="M26.7173 36.5562C26.8188 38.1812 28.1836 39.2222 30.2148 39.2222C32.3857 39.2222 33.7441 38.1304 33.7441 36.3975C33.7441 35.0264 32.9697 34.271 31.0908 33.8203L30.0815 33.5728C28.8882 33.2808 28.4058 32.8999 28.4058 32.2334C28.4058 31.3765 29.1548 30.8242 30.2783 30.8242C31.3447 30.8242 32.0811 31.3574 32.2144 32.2271H33.5981C33.5156 30.6973 32.1572 29.6182 30.2974 29.6182C28.2979 29.6182 26.9648 30.6973 26.9648 32.3096C26.9648 33.6426 27.7202 34.4297 29.377 34.8296L30.5576 35.1152C31.77 35.4072 32.3032 35.8516 32.3032 36.5688C32.3032 37.4067 31.4653 38.0098 30.3228 38.0098C29.0977 38.0098 28.2471 37.4448 28.1265 36.5562H26.7173ZM39.9902 37.1528C39.7363 37.7114 39.1714 38.0161 38.3462 38.0161C37.2544 38.0161 36.5498 37.229 36.5054 35.9785V35.915H41.3867V35.4453C41.3867 33.2871 40.2251 31.9731 38.3018 31.9731C36.353 31.9731 35.1152 33.376 35.1152 35.5659C35.1152 37.7686 36.3276 39.1333 38.3081 39.1333C39.8887 39.1333 41.0059 38.3716 41.3042 37.1528H39.9902ZM38.2954 33.084C39.3047 33.084 39.9648 33.814 39.9966 34.9312H36.5054C36.5815 33.8203 37.2861 33.084 38.2954 33.084ZM43.0879 39H44.4526V29.4023H43.0879V39ZM51.0352 37.1528C50.7812 37.7114 50.2163 38.0161 49.3911 38.0161C48.2993 38.0161 47.5947 37.229 47.5503 35.9785V35.915H52.4316V35.4453C52.4316 33.2871 51.27 31.9731 49.3467 31.9731C47.3979 31.9731 46.1602 33.376 46.1602 35.5659C46.1602 37.7686 47.3726 39.1333 49.353 39.1333C50.9336 39.1333 52.0508 38.3716 52.3491 37.1528H51.0352ZM49.3403 33.084C50.3496 33.084 51.0098 33.814 51.0415 34.9312H47.5503C47.6265 33.8203 48.3311 33.084 49.3403 33.084ZM59.9219 34.3218C59.7441 32.9824 58.6968 31.9731 56.9639 31.9731C54.9517 31.9731 53.7266 33.3379 53.7266 35.5278C53.7266 37.7622 54.958 39.1333 56.9702 39.1333C58.6777 39.1333 59.7441 38.1748 59.9219 36.8164H58.5952C58.4175 37.5654 57.8271 37.9717 56.9639 37.9717C55.8276 37.9717 55.123 37.0513 55.123 35.5278C55.123 34.0361 55.8213 33.1348 56.9639 33.1348C57.8779 33.1348 58.4365 33.6489 58.5952 34.3218H59.9219ZM62.0674 30.3672V32.1255H60.9692V33.2173H62.0674V37.1846C62.0674 38.5112 62.6704 39.0444 64.1875 39.0444C64.4541 39.0444 64.708 39.0127 64.9302 38.9746V37.8892C64.7397 37.9082 64.6191 37.9209 64.4097 37.9209C63.7305 37.9209 63.4321 37.5972 63.4321 36.8545V33.2173H64.9302V32.1255H63.4321V30.3672H62.0674ZM70.5732 30.3672V32.1255H69.4751V33.2173H70.5732V37.1846C70.5732 38.5112 71.1763 39.0444 72.6934 39.0444C72.96 39.0444 73.2139 39.0127 73.436 38.9746V37.8892C73.2456 37.9082 73.125 37.9209 72.9155 37.9209C72.2363 37.9209 71.938 37.5972 71.938 36.8545V33.2173H73.436V32.1255H71.938V30.3672H70.5732ZM75.1055 39H76.4702V34.9629C76.4702 33.8838 77.0923 33.1665 78.2095 33.1665C79.1743 33.1665 79.6885 33.7314 79.6885 34.8677V39H81.0532V34.5439C81.0532 32.9126 80.1455 31.9795 78.6729 31.9795C77.6318 31.9795 76.9019 32.4365 76.5654 33.2046H76.4575V29.4023H75.1055V39ZM87.5088 37.1528C87.2549 37.7114 86.6899 38.0161 85.8647 38.0161C84.7729 38.0161 84.0684 37.229 84.0239 35.9785V35.915H88.9053V35.4453C88.9053 33.2871 87.7437 31.9731 85.8203 31.9731C83.8716 31.9731 82.6338 33.376 82.6338 35.5659C82.6338 37.7686 83.8462 39.1333 85.8267 39.1333C87.4072 39.1333 88.5244 38.3716 88.8228 37.1528H87.5088ZM85.814 33.084C86.8232 33.084 87.4834 33.814 87.5151 34.9312H84.0239C84.1001 33.8203 84.8047 33.084 85.814 33.084ZM94.5801 30.3672V32.1255H93.4819V33.2173H94.5801V37.1846C94.5801 38.5112 95.1831 39.0444 96.7002 39.0444C96.9668 39.0444 97.2207 39.0127 97.4429 38.9746V37.8892C97.2524 37.9082 97.1318 37.9209 96.9224 37.9209C96.2432 37.9209 95.9448 37.5972 95.9448 36.8545V33.2173H97.4429V32.1255H95.9448V30.3672H94.5801ZM100.959 39.1143C101.867 39.1143 102.623 38.7207 103.035 38.0225H103.143V39H104.457V34.2837C104.457 32.8364 103.479 31.9731 101.747 31.9731C100.179 31.9731 99.0615 32.7285 98.9219 33.8901H100.242C100.395 33.3887 100.921 33.103 101.683 33.103C102.616 33.103 103.099 33.5283 103.099 34.2837V34.8867L101.226 35.001C99.582 35.1025 98.6553 35.8198 98.6553 37.0576C98.6553 38.3145 99.6265 39.1143 100.959 39.1143ZM101.309 38.0161C100.566 38.0161 100.026 37.6416 100.026 37.0005C100.026 36.3721 100.458 36.0356 101.41 35.9722L103.099 35.8579V36.4546C103.099 37.3433 102.337 38.0161 101.309 38.0161ZM106.241 34.0361C106.241 35.0581 106.85 35.6421 108.164 35.9468L109.37 36.2324C110.062 36.3975 110.386 36.6768 110.386 37.1084C110.386 37.6733 109.783 38.0669 108.932 38.0669C108.107 38.0669 107.599 37.7305 107.428 37.1909H106.063C106.184 38.3906 107.256 39.1333 108.9 39.1333C110.551 39.1333 111.763 38.2637 111.763 36.9814C111.763 35.9785 111.147 35.4136 109.833 35.1089L108.685 34.8423C107.936 34.6646 107.586 34.3979 107.586 33.9727C107.586 33.4141 108.164 33.0396 108.926 33.0396C109.7 33.0396 110.195 33.376 110.322 33.8901H111.63C111.497 32.6968 110.481 31.9731 108.926 31.9731C107.364 31.9731 106.241 32.8364 106.241 34.0361ZM114.943 35.0137H114.835V29.4023H113.471V39H114.835V36.4927L115.438 35.915L117.812 39H119.488L116.454 35.0581L119.298 32.1064H117.686L114.943 35.0137ZM124.782 30.3672V32.1255H123.684V33.2173H124.782V37.1846C124.782 38.5112 125.385 39.0444 126.902 39.0444C127.169 39.0444 127.423 39.0127 127.645 38.9746V37.8892C127.455 37.9082 127.334 37.9209 127.125 37.9209C126.445 37.9209 126.147 37.5972 126.147 36.8545V33.2173H127.645V32.1255H126.147V30.3672H124.782ZM132.095 39.1333C134.113 39.1333 135.351 37.7812 135.351 35.5532C135.351 33.3252 134.107 31.9731 132.095 31.9731C130.076 31.9731 128.832 33.3315 128.832 35.5532C128.832 37.7812 130.07 39.1333 132.095 39.1333ZM132.095 37.9717C130.908 37.9717 130.241 37.0894 130.241 35.5532C130.241 34.0171 130.908 33.1284 132.095 33.1284C133.275 33.1284 133.948 34.0171 133.948 35.5532C133.948 37.083 133.275 37.9717 132.095 37.9717ZM140.55 39H141.915V34.8804C141.915 33.9092 142.645 33.2427 143.679 33.2427C143.92 33.2427 144.327 33.2871 144.441 33.3188V32.0366C144.295 32.0049 144.035 31.9858 143.832 31.9858C142.93 31.9858 142.162 32.4746 141.965 33.1538H141.864V32.1064H140.55V39ZM151.582 32.1064H150.217V36.1499C150.217 37.2607 149.614 37.9336 148.51 37.9336C147.507 37.9336 147.056 37.3877 147.056 36.2451V32.1064H145.691V36.5815C145.691 38.2002 146.542 39.1333 148.072 39.1333C149.119 39.1333 149.824 38.689 150.16 37.9082H150.268V39H151.582V32.1064ZM153.562 39H154.927V34.9565C154.927 33.8457 155.568 33.1602 156.578 33.1602C157.587 33.1602 158.069 33.7188 158.069 34.8613V39H159.434V34.5376C159.434 32.8936 158.583 31.9731 157.041 31.9731C156 31.9731 155.314 32.4365 154.978 33.1982H154.876V32.1064H153.562V39Z" fill="#A0A0A0"/>
<rect x="21.5" y="21.5" width="589" height="25" rx="2.5" stroke="#007ACC"/>
<rect x="21" y="54" width="590" height="22" rx="2" fill="#094771"/>
<path d="M34.1489 60.8403V70H35.5708V66.8706H37.6909C39.4873 66.8706 40.7568 65.6392 40.7568 63.8745C40.7568 62.0718 39.5254 60.8403 37.7354 60.8403H34.1489ZM35.5708 62.04H37.3608C38.6113 62.04 39.3032 62.6875 39.3032 63.8745C39.3032 65.0234 38.5859 65.6772 37.3608 65.6772H35.5708V62.04ZM42.1597 67.5562C42.2612 69.1812 43.626 70.2222 45.6572 70.2222C47.8281 70.2222 49.1865 69.1304 49.1865 67.3975C49.1865 66.0264 48.4121 65.271 46.5332 64.8203L45.5239 64.5728C44.3306 64.2808 43.8481 63.8999 43.8481 63.2334C43.8481 62.3765 44.5972 61.8242 45.7207 61.8242C46.7871 61.8242 47.5234 62.3574 47.6567 63.2271H49.0405C48.958 61.6973 47.5996 60.6182 45.7397 60.6182C43.7402 60.6182 42.4072 61.6973 42.4072 63.3096C42.4072 64.6426 43.1626 65.4297 44.8193 65.8296L46 66.1152C47.2124 66.4072 47.7456 66.8516 47.7456 67.5688C47.7456 68.4067 46.9077 69.0098 45.7651 69.0098C44.54 69.0098 43.6895 68.4448 43.5688 67.5562H42.1597ZM52.481 66.4771H54.4868L56.353 70H57.9971L55.9404 66.2549C57.0576 65.8804 57.7178 64.8774 57.7178 63.6396C57.7178 61.9321 56.5308 60.8403 54.6836 60.8403H51.0591V70H52.481V66.4771ZM52.481 62.0337H54.4868C55.585 62.0337 56.2578 62.6494 56.2578 63.6714C56.2578 64.7188 55.623 65.3091 54.5249 65.3091H52.481V62.0337ZM65.4111 63.1064H64.0464V67.1499C64.0464 68.2607 63.4434 68.9336 62.3389 68.9336C61.3359 68.9336 60.8853 68.3877 60.8853 67.2451V63.1064H59.5205V67.5815C59.5205 69.2002 60.3711 70.1333 61.9009 70.1333C62.9482 70.1333 63.6528 69.689 63.9893 68.9082H64.0972V70H65.4111V63.1064ZM67.4551 70H68.8198V60.4023H67.4551V70ZM75.4023 68.1528C75.1484 68.7114 74.5835 69.0161 73.7583 69.0161C72.6665 69.0161 71.9619 68.229 71.9175 66.9785V66.915H76.7988V66.4453C76.7988 64.2871 75.6372 62.9731 73.7139 62.9731C71.7651 62.9731 70.5273 64.376 70.5273 66.5659C70.5273 68.7686 71.7397 70.1333 73.7202 70.1333C75.3008 70.1333 76.418 69.3716 76.7163 68.1528H75.4023ZM73.7075 64.084C74.7168 64.084 75.377 64.814 75.4087 65.9312H71.9175C71.9937 64.8203 72.6982 64.084 73.7075 64.084ZM79.4966 65.3281C80.0361 65.3281 80.4297 64.9282 80.4297 64.4141C80.4297 63.8999 80.0361 63.5 79.4966 63.5C78.9634 63.5 78.5635 63.8999 78.5635 64.4141C78.5635 64.9282 78.9634 65.3281 79.4966 65.3281ZM79.4966 70.0952C80.0361 70.0952 80.4297 69.6953 80.4297 69.1812C80.4297 68.667 80.0361 68.2671 79.4966 68.2671C78.9634 68.2671 78.5635 68.667 78.5635 69.1812C78.5635 69.6953 78.9634 70.0952 79.4966 70.0952ZM87.6724 66.4771H89.6782L91.5444 70H93.1885L91.1318 66.2549C92.249 65.8804 92.9092 64.8774 92.9092 63.6396C92.9092 61.9321 91.7222 60.8403 89.875 60.8403H86.2505V70H87.6724V66.4771ZM87.6724 62.0337H89.6782C90.7764 62.0337 91.4492 62.6494 91.4492 63.6714C91.4492 64.7188 90.8145 65.3091 89.7163 65.3091H87.6724V62.0337ZM100.603 63.1064H99.2378V67.1499C99.2378 68.2607 98.6348 68.9336 97.5303 68.9336C96.5273 68.9336 96.0767 68.3877 96.0767 67.2451V63.1064H94.7119V67.5815C94.7119 69.2002 95.5625 70.1333 97.0923 70.1333C98.1396 70.1333 98.8442 69.689 99.1807 68.9082H99.2886V70H100.603V63.1064ZM102.583 70H103.948V65.9565C103.948 64.8457 104.589 64.1602 105.598 64.1602C106.607 64.1602 107.09 64.7188 107.09 65.8613V70H108.455V65.5376C108.455 63.8936 107.604 62.9731 106.062 62.9731C105.021 62.9731 104.335 63.4365 103.999 64.1982H103.897V63.1064H102.583V70ZM115.843 70.1143C116.751 70.1143 117.506 69.7207 117.919 69.0225H118.027V70H119.341V65.2837C119.341 63.8364 118.363 62.9731 116.63 62.9731C115.062 62.9731 113.945 63.7285 113.806 64.8901H115.126C115.278 64.3887 115.805 64.103 116.567 64.103C117.5 64.103 117.982 64.5283 117.982 65.2837V65.8867L116.11 66.001C114.466 66.1025 113.539 66.8198 113.539 68.0576C113.539 69.3145 114.51 70.1143 115.843 70.1143ZM116.192 69.0161C115.45 69.0161 114.91 68.6416 114.91 68.0005C114.91 67.3721 115.342 67.0356 116.294 66.9722L117.982 66.8579V67.4546C117.982 68.3433 117.221 69.0161 116.192 69.0161ZM121.283 70H122.648V65.9565C122.648 64.8457 123.289 64.1602 124.298 64.1602C125.308 64.1602 125.79 64.7188 125.79 65.8613V70H127.155V65.5376C127.155 63.8936 126.304 62.9731 124.762 62.9731C123.721 62.9731 123.035 63.4365 122.699 64.1982H122.597V63.1064H121.283V70ZM130.989 70.1143C131.896 70.1143 132.652 69.7207 133.064 69.0225H133.172V70H134.486V65.2837C134.486 63.8364 133.509 62.9731 131.776 62.9731C130.208 62.9731 129.091 63.7285 128.951 64.8901H130.271C130.424 64.3887 130.951 64.103 131.712 64.103C132.646 64.103 133.128 64.5283 133.128 65.2837V65.8867L131.255 66.001C129.611 66.1025 128.685 66.8198 128.685 68.0576C128.685 69.3145 129.656 70.1143 130.989 70.1143ZM131.338 69.0161C130.595 69.0161 130.056 68.6416 130.056 68.0005C130.056 67.3721 130.487 67.0356 131.439 66.9722L133.128 66.8579V67.4546C133.128 68.3433 132.366 69.0161 131.338 69.0161ZM136.492 70H137.857V60.4023H136.492V70ZM140.593 72.501C142.002 72.501 142.656 71.9741 143.246 70.3174L145.823 63.1064H144.376L142.649 68.6289H142.542L140.809 63.1064H139.323L141.824 70.019L141.723 70.3745C141.488 71.1045 141.12 71.3774 140.472 71.3774C140.345 71.3774 140.136 71.3711 140.028 71.3521V72.4692C140.155 72.4883 140.479 72.501 140.593 72.501ZM146.871 65.0361C146.871 66.0581 147.48 66.6421 148.794 66.9468L150 67.2324C150.692 67.3975 151.016 67.6768 151.016 68.1084C151.016 68.6733 150.413 69.0669 149.562 69.0669C148.737 69.0669 148.229 68.7305 148.058 68.1909H146.693C146.813 69.3906 147.886 70.1333 149.53 70.1333C151.181 70.1333 152.393 69.2637 152.393 67.9814C152.393 66.9785 151.777 66.4136 150.463 66.1089L149.314 65.8423C148.565 65.6646 148.216 65.3979 148.216 64.9727C148.216 64.4141 148.794 64.0396 149.556 64.0396C150.33 64.0396 150.825 64.376 150.952 64.8901H152.26C152.126 63.6968 151.111 62.9731 149.556 62.9731C147.994 62.9731 146.871 63.8364 146.871 65.0361ZM154.742 61.875C155.218 61.875 155.605 61.4878 155.605 61.0181C155.605 60.542 155.218 60.1548 154.742 60.1548C154.266 60.1548 153.878 60.542 153.878 61.0181C153.878 61.4878 154.266 61.875 154.742 61.875ZM154.062 70H155.421V63.1064H154.062V70ZM157.268 65.0361C157.268 66.0581 157.877 66.6421 159.191 66.9468L160.397 67.2324C161.089 67.3975 161.413 67.6768 161.413 68.1084C161.413 68.6733 160.81 69.0669 159.959 69.0669C159.134 69.0669 158.626 68.7305 158.455 68.1909H157.09C157.211 69.3906 158.284 70.1333 159.928 70.1333C161.578 70.1333 162.791 69.2637 162.791 67.9814C162.791 66.9785 162.175 66.4136 160.861 66.1089L159.712 65.8423C158.963 65.6646 158.614 65.3979 158.614 64.9727C158.614 64.4141 159.191 64.0396 159.953 64.0396C160.728 64.0396 161.223 64.376 161.35 64.8901H162.657C162.524 63.6968 161.508 62.9731 159.953 62.9731C158.392 62.9731 157.268 63.8364 157.268 65.0361Z" fill="white"/>
<path d="M589.12 61.3733L588.587 58.9733H587.413L586.88 61.3733L586.187 61.6933L584.213 60.4133L583.307 61.2133L584.587 63.1867L584.427 63.88L582.027 64.4133V65.5867L584.427 66.12L584.693 66.92L583.413 68.8933L584.213 69.6933L586.187 68.4133L586.987 68.68L587.413 70.9733H588.587L589.12 68.5733L589.92 68.3067L591.893 69.5867L592.693 68.7867L591.413 66.8133L591.68 66.0133L594.027 65.5867V64.4133L591.627 63.88L591.307 63.08L592.587 61.1067L591.787 60.3067L589.813 61.5867L589.12 61.3733ZM589.387 58.0133L589.92 60.4133L592 59.08L594.027 61.1067L592.587 63.1867L594.987 63.6133V66.3867L592.587 66.92L594.027 69L592 70.9733L589.92 69.5867L589.387 71.9867H586.613L586.08 69.5867L584 70.92L582.027 68.8933L583.413 66.8133L581.013 66.3867V63.6133L583.413 63.08L582.08 61L584.107 58.9733L586.187 60.4133L586.613 58.0133H589.387ZM590.027 65C590.027 65.5333 589.813 65.9956 589.387 66.3867C588.996 66.7778 588.533 66.9733 588 66.9733C587.467 66.9733 587.004 66.7778 586.613 66.3867C586.222 65.9956 586.027 65.5333 586.027 65C586.027 64.4667 586.222 64.0044 586.613 63.6133C587.004 63.1867 587.467 62.9733 588 62.9733C588.533 62.9733 588.996 63.1867 589.387 63.6133C589.813 64.0044 590.027 64.4667 590.027 65ZM588 66.0133C588.284 66.0133 588.516 65.9244 588.693 65.7467C588.907 65.5333 589.013 65.2844 589.013 65C589.013 64.7156 588.907 64.4844 588.693 64.3067C588.516 64.0933 588.284 63.9867 588 63.9867C587.716 63.9867 587.467 64.0933 587.253 64.3067C587.076 64.4844 586.987 64.7156 586.987 65C586.987 65.2844 587.076 65.5333 587.253 65.7467C587.467 65.9244 587.716 66.0133 588 66.0133Z" fill="white"/>
<path d="M41.9629 88.3945V87.2583H38.2051V88.4072H40.5664V88.6104C40.5537 90.0132 39.5254 90.959 38.0273 90.959C36.3071 90.959 35.228 89.6069 35.228 87.4106C35.228 85.2461 36.3008 83.8813 37.9956 83.8813C39.2461 83.8813 40.1157 84.4971 40.4712 85.6333H41.8994C41.5884 83.7861 40.0776 82.6182 37.9956 82.6182C35.4312 82.6182 33.7744 84.5034 33.7744 87.417C33.7744 90.3687 35.4121 92.2222 38.0083 92.2222C40.4077 92.2222 41.9629 90.7178 41.9629 88.3945ZM46.6855 92.1333C48.7041 92.1333 49.9419 90.7812 49.9419 88.5532C49.9419 86.3252 48.6978 84.9731 46.6855 84.9731C44.667 84.9731 43.4229 86.3315 43.4229 88.5532C43.4229 90.7812 44.6606 92.1333 46.6855 92.1333ZM46.6855 90.9717C45.4985 90.9717 44.832 90.0894 44.832 88.5532C44.832 87.0171 45.4985 86.1284 46.6855 86.1284C47.8662 86.1284 48.5391 87.0171 48.5391 88.5532C48.5391 90.083 47.8662 90.9717 46.6855 90.9717ZM58.8032 92.1143C60.5488 92.1143 61.6597 90.7241 61.6597 88.5532C61.6597 86.3633 60.5552 84.9858 58.8032 84.9858C57.8574 84.9858 57.0449 85.4492 56.6768 86.1982H56.5688V82.4023H55.2041V92H56.5181V90.9082H56.6196C57.0322 91.6699 57.8384 92.1143 58.8032 92.1143ZM58.4097 86.1538C59.5649 86.1538 60.2568 87.0615 60.2568 88.5532C60.2568 90.0449 59.5649 90.9463 58.4097 90.9463C57.2607 90.9463 56.5498 90.0322 56.5435 88.5532C56.5498 87.0742 57.2671 86.1538 58.4097 86.1538ZM65.2144 92.1143C66.1221 92.1143 66.8774 91.7207 67.29 91.0225H67.3979V92H68.7119V87.2837C68.7119 85.8364 67.7344 84.9731 66.0015 84.9731C64.4336 84.9731 63.3164 85.7285 63.1768 86.8901H64.4971C64.6494 86.3887 65.1763 86.103 65.938 86.103C66.8711 86.103 67.3535 86.5283 67.3535 87.2837V87.8867L65.481 88.001C63.8369 88.1025 62.9102 88.8198 62.9102 90.0576C62.9102 91.3145 63.8813 92.1143 65.2144 92.1143ZM65.5635 91.0161C64.8208 91.0161 64.2812 90.6416 64.2812 90.0005C64.2812 89.3721 64.7129 89.0356 65.665 88.9722L67.3535 88.8579V89.4546C67.3535 90.3433 66.5918 91.0161 65.5635 91.0161ZM76.5068 87.3218C76.3291 85.9824 75.2817 84.9731 73.5488 84.9731C71.5366 84.9731 70.3115 86.3379 70.3115 88.5278C70.3115 90.7622 71.543 92.1333 73.5552 92.1333C75.2627 92.1333 76.3291 91.1748 76.5068 89.8164H75.1802C75.0024 90.5654 74.4121 90.9717 73.5488 90.9717C72.4126 90.9717 71.708 90.0513 71.708 88.5278C71.708 87.0361 72.4062 86.1348 73.5488 86.1348C74.4629 86.1348 75.0215 86.6489 75.1802 87.3218H76.5068ZM79.6045 88.0137H79.4966V82.4023H78.1318V92H79.4966V89.4927L80.0996 88.915L82.4736 92H84.1494L81.1152 88.0581L83.959 85.1064H82.3467L79.6045 88.0137Z" fill="#CCCCCC"/>
<rect x="16.5" y="14.5" width="599" height="91" rx="5.5" stroke="#333333"/>
</g>
<path fill-rule="evenodd" clip-rule="evenodd" d="M97 85V86.984C97 87.1166 96.9473 87.2438 96.8535 87.3376C96.7598 87.4313 96.6326 87.484 96.5 87.484H89.618L91.251 85.851L90.544 85.144L88.423 87.265L88 87.688V88.256L90.544 90.8L91.251 90.093L89.641 88.484H96.5C96.8978 88.484 97.2793 88.326 97.5607 88.0447C97.842 87.7634 98 87.3818 98 86.984V85H97Z" fill="#C5C5C5"/>
<defs>
<filter id="filter0_d_2_120951" x="0" y="0" width="632" height="124" filterUnits="userSpaceOnUse" color-interpolation-filters="sRGB">
<feFlood flood-opacity="0" result="BackgroundImageFix"/>
<feColorMatrix in="SourceAlpha" type="matrix" values="0 0 0 0 0 0 0 0 0 0 0 0 0 0 0 0 0 0 127 0" result="hardAlpha"/>
<feOffset dy="2"/>
<feGaussianBlur stdDeviation="8"/>
<feColorMatrix type="matrix" values="0 0 0 0 0 0 0 0 0 0 0 0 0 0 0 0 0 0 0.36 0"/>
<feBlend mode="normal" in2="BackgroundImageFix" result="effect1_dropShadow_2_120951"/>
<feBlend mode="normal" in="SourceGraphic" in2="effect1_dropShadow_2_120951" result="shape"/>
</filter>
</defs>
</svg>
